<svg height="512" viewBox="0 0 512 512" width="512" xmlns="http://www.w3.org/2000/svg"><path d="m512 124.984v-87.694c0-20.591-16.544-37.29-36.944-37.29h-438.112c-20.4 0-36.944 16.683-36.944 37.29v87.71h512z" fill="#e95454"/><path d="m0 473.355c0 21.339 16.544 38.645 36.944 38.645h438.112c20.4 0 36.944-17.306 36.944-38.645v-348.355h-512z" fill="#e5e5e5"/><g fill="#ffdb70"><circle cx="70" cy="60" r="25"/><circle cx="140" cy="60" r="25"/><circle cx="210" cy="60" r="25"/></g><g fill="#f26522"><path d="m133.776 401.04-81.504-69.152c-4.096-3.488-6.464-8.592-6.464-13.984s2.368-10.496 6.464-13.984l81.504-69.152c7.728-6.56 19.296-5.584 25.84 2.112 6.56 7.728 5.6 19.296-2.112 25.84l-65.024 55.184 65.024 55.168c7.712 6.56 8.672 18.112 2.112 25.84-6.528 7.728-18.096 8.688-25.84 2.128z"/><path d="m352.384 398.928c-6.56-7.728-5.6-19.296 2.112-25.84l65.024-55.168-65.024-55.168c-7.712-6.56-8.672-18.112-2.112-25.84 6.544-7.696 18.128-8.672 25.84-2.112l81.504 69.152c4.096 3.488 6.464 8.592 6.464 13.984s-2.368 10.496-6.464 13.984l-81.504 69.152c-7.744 6.528-19.312 5.568-25.84-2.144z"/><path d="m204.672 445.2c-9.392-3.792-13.936-14.48-10.144-23.856l88.928-220.56c3.776-9.392 14.432-13.904 23.856-10.16 9.392 3.792 13.936 14.48 10.144 23.856l-88.912 220.56c-3.744 9.312-14.336 13.952-23.872 10.16z"/></g></svg>