<svg version="1.0" xmlns="http://www.w3.org/2000/svg" width="1045.333" height="1045.333" viewBox="0 0 784 784"><path d="M609.9 112.4c-.2.2-2.9.6-5.9 1-3 .3-6.2.8-7 .9-2.3.6-11.4 2-12 1.9-.3 0-1.3.4-2.3 1-1 .5-2.6 1.1-3.5 1.3-7.6 1.4-35.6 13.7-38.9 17.1-.8.8-1.9 1.4-2.4 1.4s-1.7.6-2.6 1.4c-1 .8-4.7 3.6-8.3 6.3-7.3 5.3-24 21.6-28.5 27.8-1.7 2.2-3.2 4.2-3.5 4.5-2 1.8-10 15.2-14.5 24.5-4.7 9.6-10.5 25-11.9 31.8-.3 1.2-.8 3.3-1.1 4.7-.3 1.4-.8 4.1-1 6-.3 1.9-.7 4.5-1 5.6-.3 1.2-.8 8-1.1 15-.3 7.1-.8 13.2-1.1 13.6-.2.5 0 .8.5.8.6 0 .7 1.4.2 3.5-.5 2.3-.4 3.5.3 3.5.8 0 .8.3 0 1.1-.7.7-.8 2.1-.3 3.9.4 1.5.4 3.3 0 4.1-.5.7-.6 1.7-.3 2.2.7 1.2.7 11.6 0 12.3-.3.4-.2 1.6.3 2.8.4 1.3.5 2.8 0 3.5-.4.7-.4 2.8 0 4.7.4 1.9.4 3.6 0 3.9-.5.3-.5 1.8 0 3.4.4 1.6.6 3.2.2 3.5-.7.7-.6 10.2.1 11.4.3.4.2 1.4-.3 2.2-.4.7-.4 2.4 0 3.6.6 1.4.5 2.6 0 2.9-.5.3-.5 1.8 0 3.4.4 1.5.4 3.4 0 4.2-.5.7-.6 1.7-.3 2.2.3.5.5 3.5.4 6.6-.1 3.1-.1 6.5-.1 7.6.1 1.1.1 2.7 0 3.5 0 .8 0 2.8.1 4.5.1 1.6.1 3.7 0 4.5-.1.8-.1 2.4-.1 3.5.1 1.1.1 2.7.1 3.5-.3 6.1-.2 11.1.3 11.9.4.5.2 1.2-.3 1.5-.6.4-.6 1.8-.1 3.6.5 1.6.5 3.2 0 3.5-.5.3-.5 1.8 0 3.4.4 1.5.4 3.4 0 4.2-.5.7-.6 1.7-.3 2.2.7 1.2.7 11.6 0 12.3-.3.4-.2 1.6.3 2.8.4 1.3.5 2.8 0 3.5-.4.7-.4 2.8 0 4.7.4 1.9.4 3.6 0 3.9-.5.3-.5 1.8 0 3.4.4 1.6.6 3.2.2 3.5-.7.7-.6 10.2.1 11.4.3.4.2 1.4-.3 2.2-.4.7-.4 2.4 0 3.6.6 1.4.5 2.6 0 2.9-.5.3-.5 1.8 0 3.4.4 1.5.4 3.4 0 4.2-.5.7-.6 1.7-.3 2.2.3.5.5 3.5.4 6.6-.1 3.1-.1 6.5-.1 7.6.1 1.1.1 2.7.1 3.5-.6 12.6 1.2 30 4.5 42.9.9 3.6 1.7 7.2 1.9 8 .9 4 6 16.5 10.2 25.1 11.9 24.5 31.1 46.4 54 61.8 3.4 2.3 6.6 4.2 7.2 4.2.5 0 1.1.4 1.3.9.4 1.1 12.9 7.4 22.1 11 8.1 3.2 23.6 7.6 30.7 8.7 2.5.3 5.6.8 7 1.1 7.4 1.3 34.2 1.1 43.5-.3 13.7-2.2 14-2.2 14-2.4 0-.1.7-.3 1.5-.5 10.6-2.1 31.5-10.6 43.4-17.6 15.1-9 32.7-24.2 43.1-37.4 2.2-2.8 4.3-5.1 4.8-5.3.4-.2.7-1 .7-1.8s.5-1.4 1-1.4c.6 0 1-.7 1-1.5s.5-1.5 1-1.5c.6 0 1-.7 1-1.5s.3-1.5.8-1.5c.4 0 1.2-.8 1.7-1.8 3.4-6.3 11.2-22.3 12.3-25.2 1.6-4 5.1-14.8 5.6-17 .2-.8.9-3.3 1.5-5.5 3.9-14.7 4-17.8 3.7-159-.1-74.8-.5-137.5-.9-139.3-.3-1.8-1.1-5.9-1.7-9-.6-3.1-1.3-6.7-1.6-7.9-2.1-10.3-12.6-35.1-19.6-46.3-11.3-18.1-29.2-36.3-48.1-48.9-16-10.8-44-21.8-59.5-23.6-2-.2-4.8-.7-6.2-1.1-2.6-.6-35.5-1.6-36.1-1zM141.5 353.1c-10.8 1.4-13 1.7-14.5 2.3-.8.3-2.8.7-4.5.9-5.9.9-22 6.8-32.9 12.1C80.3 373 66.8 380.9 65 383c-.3.3-2.3 1.8-4.5 3.5C56 389.8 37.8 408 34 413c-1.4 1.8-4.2 5.8-6.2 8.9-2.1 3.1-4.3 6.2-4.9 6.9-.6.7-3.5 6.3-6.4 12.5-5.4 11.4-9.1 21.5-11.8 32.2-1.5 5.8-1.9 7.6-3.4 18-.9 5.8-.9 36.3 0 41.5.3 1.9.8 5.3 1.2 7.5.9 5.7 3.3 14.8 6.1 23.5 3 9.1 14 32 15.4 32 .6 0 1 .6 1 1.4 0 4.2 22.7 29.9 35 39.7C66.2 642 76.7 649 77.9 649c.5 0 1.1.4 1.3.9.7 2 28.1 14 35.5 15.6 1 .2 4.5 1.1 7.8 2 3.3.9 7.6 1.8 9.5 2 1.9.2 4.6.7 6 1 5.4 1.4 34.6 1.4 43.5.1 36.4-5.5 66.4-20.4 91.6-45.5 13.4-13.4 23.9-28.3 31.2-44.1 6.1-13.4 7.3-16.5 10.8-30 3.6-13.9 4.3-20.1 4.3-38.5.1-16.1-.6-23.8-3.1-35-.4-1.7-.8-3.5-.9-4-.1-.6-1-3.7-2-7s-1.9-6.5-2-7c-1.1-4.7-12.3-28.2-14.6-30.6-.7-.8-2-2.7-2.8-4.4-1.7-3.3-1.3-2.8-10.3-14-5.9-7.2-13.7-15.1-22.5-22.7-14-12.1-46.5-28.3-62.9-31.2-1.3-.3-3.1-.7-4.1-1-.9-.3-3.5-.8-5.7-1.1-2.2-.4-5.1-.9-6.5-1.1-4.6-.9-34.4-1.1-40.5-.3z"/></svg>