<svg height="48" viewBox="0 0 48 48" width="48" xmlns="http://www.w3.org/2000/svg"><path d="m20.962 14.388c-6.076.17-10.577 4.88-10.577 10.986 0 4.58 3.676 8.244 8.28 8.244h1.442c3.157 0 5.716-2.572 5.716-5.744 0-1.901-1.545-3.44-3.442-3.416-.631.012-1.231.281-1.66.744l-.617.66c-.563.6-1.502.727-2.154.225-.354-.272-.578-.68-.617-1.125s.111-.886.413-1.215l.403-.44c1.113-1.212 2.683-1.902 4.328-1.902 3.525 0 6.384 2.872 6.384 6.416 0 4.888-3.943 8.85-8.806 8.85h-1.378c-6.288 0-11.386-5.123-11.386-11.443 0-7.677 6.192-13.9 13.83-13.9h19.588c4.027 0 7.291-3.28 7.291-7.328h-26.799c-11.709 0-21.201 9.54-21.201 21.31 0 10.321 8.326 18.69 18.596 18.69h1.548c8.673 0 15.704-7.066 15.704-15.784v-.807c0-2.269-.578-4.478-1.593-6.31h1.897c3.691 0 6.683-3.007 6.683-6.717z" fill="#f21780"/></svg>