<svg xmlns="http://www.w3.org/2000/svg" viewBox="0 0 488.42 488.42" width="80" height="80">
  <defs>
    <linearGradient id="a" x1="0" y1="0" x2="0" y2="100%" gradientUnits="userSpaceOnUse">
      <stop offset="0" stop-color="#fa0891" />
      <stop offset="1" stop-color="#f26522" />
    </linearGradient>
  </defs>
  <g fill="url(#a)">
    <path d="M315.43 445.04c-.08-.17-.1-.35-.2-.51l-37.7-67.87 30.76-49.23a39.86 39.86 0 005.3-29.04l-5.38-26.76v-83.9l29.65-29.66c.04 0 .06-.1.1-.14l.14-.1 77.16-84.07a24.92 24.92 0 00-.83-34.43 24.94 24.94 0 00-36.07.8l-75.55 82.34-29.27 21.95h-8.42a32.11 32.11 0 0011.09-24.25l-.72-22.83a47.76 47.76 0 0022.9-12.53l7.47-7.46a8 8 0 00-.84-12.05L283.94 49.4a48.14 48.14 0 00-51.45-5.45l-9.08 4.55c-.3.16-1.07.65-1.35.8a40.06 40.06 0 00-13.6 51.2l3.36 6.72.39 13.19a31.8 31.8 0 0011.05 24h-.24l-37.46-29.97-18.4-18.36 48.31-54.35a25.06 25.06 0 00-1.06-34.4A24.57 24.57 0 00196.2 0a24.86 24.86 0 00-17.92 8.11L117.8 74.07a31.92 31.92 0 00.96 44.25l31.75 31.75c.1.1.22.12.31.21.1.09.13.2.23.28l45.12 37.6V294.2l-46.86 78.1a8 8 0 00-.46 7.37l28 62.92a32 32 0 00-20.65 29.83v8a8 8 0 008 8h64a8 8 0 008-8 8 8 0 008 8h64a8 8 0 008-8v-32-.15a7.88 7.88 0 00-.78-3.23zm74.71-394.09a8.8 8.8 0 016.4-2.92 8.6 8.6 0 016.55 2.61 8.94 8.94 0 01.32 12.33l-71.48 77.88-12.67-12.67 70.88-77.23zM220.6 86.78A24.38 24.38 0 01231 62.58v-.01l8.63-4.31a32.17 32.17 0 0134.49 3.77l13.91 10.48-.96.96a33.51 33.51 0 01-43.07 2.96l-4.25-3.2a8 8 0 00-11.46 1.97l-7.72 11.58zm39.62 33.64a16 16 0 11-32-.25l-.48-15.2L237 91.05a48.54 48.54 0 0022.51 7.52l.69 21.85zM130.1 107a16 16 0 01-.48-22.13l60.44-65.93a8.98 8.98 0 016.48-2.94 9.33 9.33 0 016.64 2.7 9.05 9.05 0 01.36 12.4l-53.32 60a8 8 0 00.32 10.97l18.35 18.35-12.7 12.68-26.09-26.1zm37.95 36.86l12.74-12.73 34.4 27.53a8 8 0 005 1.75h56c1.73 0 3.42-.57 4.8-1.6l26.45-19.84 13.44 13.44-26.34 26.34a8 8 0 00-2.34 5.66v80h-80v-80a8 8 0 00-2.88-6.15l-41.27-34.4zm-2.85 233.1l45.85-76.44a7.93 7.93 0 001.15-4.11v-16h81.44l4.22 21.1a24 24 0 01-3.18 17.43l-33.27 53.23a8 8 0 00-.2 8.13l33.39 60.1h-21.7l-36-64.8 14.9-44.66a8 8 0 00-13.26-8.18l-48 48a8 8 0 00-1.65 8.9l27 60.76h-22.5l-28.2-63.46zm55 95.45h-48a16 16 0 0116-16h32v16zm16 0v-24c0-.12-.07-.23-.07-.35a7.92 7.92 0 00-.51-2.56c0-.08-.05-.18-.08-.27v-.07l-29.77-66.98 20.15-20.16-5.29 15.85a8.05 8.05 0 00.6 6.4L256 442.84a32 32 0 00-19.8 29.58zm64 0h-48a16 16 0 0116-16h32v16zM111.19 376.99l-31.1-12.44-12.45-31.1a8 8 0 00-14.86 0l-12.44 31.1-31.1 12.44a8 8 0 000 14.85l31.1 12.45 12.44 31.1a8 8 0 0014.86 0l12.44-31.1 31.1-12.45a8 8 0 000-14.85zM70.94 390.7a8 8 0 00-4.45 4.45l-6.3 15.71-6.28-15.7a8 8 0 00-4.45-4.46l-15.72-6.3 15.72-6.28a8 8 0 004.45-4.46l6.29-15.72 6.29 15.72a8 8 0 004.45 4.46l15.72 6.29-15.72 6.29z"/>
    <path d="M483.64 181.44a8 8 0 00-4.45-4.45l-31.1-12.44-12.45-31.1a8 8 0 00-14.86 0l-12.44 31.1-31.1 12.44a8 8 0 000 14.85l31.1 12.45 12.44 31.1a8 8 0 0014.86 0l12.44-31.1 31.1-12.45a8 8 0 004.46-10.4zm-44.69 9.27a8 8 0 00-4.45 4.45l-6.3 15.71-6.28-15.7a8 8 0 00-4.46-4.46l-15.72-6.3 15.72-6.28a8 8 0 004.46-4.46l6.29-15.72 6.29 15.72a8 8 0 004.45 4.46l15.72 6.29-15.72 6.29zM428.21 392.41h16v16h-16zM428.21 440.41h16v16h-16zM452.21 416.41h16v16h-16zM404.21 416.41h16v16h-16zM76.21 176.41h16v16h-16zM76.21 208.41h16v16h-16zM92.21 192.41h16v16h-16zM60.21 192.41h16v16h-16zM345.87 290.76a8 8 0 00-11.32 11.31l10.35 10.35-10.35 10.34a8 8 0 0011.31 11.31l16-16a8 8 0 000-11.3l-16-16zM385.87 290.76a8 8 0 00-11.32 11.31l10.35 10.35-10.35 10.34a8 8 0 1011.31 11.31l16-16a8 8 0 000-11.3l-16-16zM78.55 110.07a8 8 0 0011.31-11.3L79.52 88.41l10.35-10.35c3-3.1 2.92-8.12 0-11.3a8 8 0 00-11.32 0l-16 16a8 8 0 000 11.3l16 16zM38.55 110.07a8 8 0 0011.31-11.3L39.52 88.41l10.34-10.35a8 8 0 00-11.3-11.3l-16 16a8 8 0 000 11.3l16 16z"/>
  </g>
</svg>
