<svg xmlns="http://www.w3.org/2000/svg" viewBox="0 0 350 350" width="350" height="350">
  <defs>
    <linearGradient id="a" x1="0" x2="0" y1="0" y2="1">
      <stop offset="0" stop-color="#fa0891"/>
      <stop offset="1" stop-color="#f26522"/>
    </linearGradient>
  </defs>
  <path fill="url(#a)" d="M340.27 275.08l-53.75-53.76c-10.7-10.66-28.44-10.34-39.52.75l-27.08 27.07-5.35-2.97c-17.1-9.48-40.5-22.46-65.14-47.11-24.7-24.7-37.7-48.15-47.2-65.26-1-1.81-1.97-3.56-2.92-5.22l18.18-18.15 8.93-8.95c11.1-11.1 11.4-28.82.73-39.52L73.39 8.2C62.71-2.49 44.97-2.16 33.87 8.94L18.72 24.18l.42.4A87.6 87.6 0 006.65 46.62 91.3 91.3 0 001.1 68.94c-7.1 58.84 19.79 112.62 92.77 185.6 100.87 100.87 182.16 93.25 185.67 92.88a90.83 90.83 0 0022.4-5.63c7.99-3.12 15.46-7.36 21.94-12.43l.33.3 15.35-15.04c11.07-11.1 11.39-28.82.71-39.54z"/>
</svg>
