<svg xmlns="http://www.w3.org/2000/svg" viewBox="0 0 814 630" width="814" height="630">
  <defs>
    <linearGradient id="a" x1="0" x2="0" y1="0" y2="1">
      <stop offset="0" stop-color="#fa0891"/>
      <stop offset="1" stop-color="#f26522"/>
    </linearGradient>
  </defs>
  <path fill="url(#a)" d="M395.52 40.4c106.74-50.45 207.47-50.6 291.7-12.73 84.43 37.57 152.35 113.17 198.48 207.11 44.27 94.89 44.23 196.8 8.07 279.25-36.66 83.67-97.67 146.75-180.8 191.77-44.03 22.67-90.32 38.2-149.15 47.73-58.06 9.4-128.68 12.8-203.5 7.95-148.47-9.32-314.87-53.08-349.96-151.8-19.89-49-7.4-105.19 17.32-161.73 25.13-56.62 62.5-113.6 101.74-166.12 39.64-52.59 81.15-100.71 123.89-141.53 43.14-40.89 87.5-74.47 142.21-99.9z"/>
</svg>
