<svg xmlns="http://www.w3.org/2000/svg" viewBox="0 0 547 525" width="547" height="525">
  <defs>
    <linearGradient id="a" x1="0" x2="0" y1="0" y2="1">
      <stop offset="0" stop-color="#fa0891"/>
      <stop offset="1" stop-color="#f26522"/>
    </linearGradient>
  </defs>
  <path fill="url(#a)" d="M394.82 32.77C501.5-8.89 602.19-9.02 686.36 22.25c84.4 31.02 152.28 93.45 198.4 171.02 44.24 78.35 44.2 162.5 8.05 230.58-36.63 69.09-97.61 121.18-180.7 158.35-44.02 18.72-90.27 31.55-149.08 39.42-58.03 7.75-128.61 10.56-203.39 6.56-148.4-7.7-314.71-43.83-349.79-125.34-19.87-40.47-7.4-86.86 17.32-133.55 25.11-46.76 62.47-93.8 101.68-137.17 39.63-43.42 81.12-83.16 123.83-116.86 43.12-33.77 87.46-61.5 142.14-82.49z"/>
</svg>
