<svg xmlns="http://www.w3.org/2000/svg" viewBox="0 0 512 512" width="512" height="512">
  <defs>
    <linearGradient id="a" x1="0" x2="0" y1="0" y2="100%" gradientUnits="userSpaceOnUse">
      <stop offset="0" stop-color="#fa0891"/>
      <stop offset="1" stop-color="#f26522"/>
    </linearGradient>
  </defs>
  <g fill="url(#a)">
    <circle cx="53.33" cy="53.33" r="10.67"/>
    <circle cx="96" cy="53.33" r="10.67"/>
    <circle cx="138.67" cy="53.33" r="10.67"/>
    <path d="M188.17 301.15L134 256l54.17-45.15a10.67 10.67 0 10-13.67-16.37l-64 53.33a10.65 10.65 0 000 16.38l64 53.33a10.69 10.69 0 0015.03-1.35 10.67 10.67 0 00-1.36-15.02zM279.8 316.17a10.69 10.69 0 0015.03 1.35l64-53.33a10.65 10.65 0 000-16.38l-64-53.33a10.67 10.67 0 10-13.67 16.38L335.34 256l-54.16 45.15a10.67 10.67 0 00-1.37 15.02zM270.87 171.52a10.7 10.7 0 00-14 5.6l-64 149.34a10.68 10.68 0 009.8 14.87c4.13 0 8.07-2.41 9.8-6.46l64-149.33a10.68 10.68 0 00-5.6-14.02z"/>
    <path d="M503.93 362.98l-20.44-5.1 10.83-18.05a10.68 10.68 0 00-1.6-13.04l-23.39-23.38V42.67A42.72 42.72 0 00426.67 0h-384A42.72 42.72 0 000 42.67v384a42.72 42.72 0 0042.67 42.66H303.4l23.37 23.38a10.7 10.7 0 0013.03 1.6l18.07-10.83 5.11 20.44a10.66 10.66 0 0010.35 8.08H416c4.9 0 9.16-3.33 10.34-8.08l5.12-20.44 18.06 10.83a10.67 10.67 0 0013.03-1.6l30.17-30.17a10.68 10.68 0 001.6-13.04l-10.83-18.04 20.44-5.1A10.68 10.68 0 00512 416v-42.67c0-4.9-3.33-9.16-8.07-10.35zM21.33 42.67a21.35 21.35 0 0121.34-21.34h384A21.35 21.35 0 01448 42.67v42.66H21.33V42.67zM295.91 448H42.67a21.35 21.35 0 01-21.34-21.33v-320H448v189.26l-16.54 9.93-5.12-20.44a10.66 10.66 0 00-10.34-8.09h-42.67c-4.9 0-9.15 3.34-10.34 8.09l-5.12 20.44-18.06-10.84a10.63 10.63 0 00-13.03 1.6L296.6 326.8a10.68 10.68 0 00-1.6 13.04l10.83 18.05-20.44 5.1a10.68 10.68 0 00-8.07 10.35V416c0 4.9 3.33 9.17 8.07 10.35l20.44 5.1-9.93 16.55zm194.76-40.33l-18.33 4.58c-3.47.88-6.29 3.44-7.47 6.83a71.98 71.98 0 01-3.25 7.98 10.7 10.7 0 00.44 10.17l9.68 16.12-18.39 18.38-16.13-9.67a10.6 10.6 0 00-10.16-.46 72.48 72.48 0 01-8 3.27c-3.38 1.2-5.93 4-6.8 7.48l-4.58 18.32h-26.02l-4.59-18.32a10.65 10.65 0 00-6.79-7.48c-2.74-.95-5.41-2-8-3.27a10.66 10.66 0 00-10.16.46l-16.14 9.67-18.38-18.38 9.67-16.12a10.7 10.7 0 00.45-10.17 71.98 71.98 0 01-3.25-7.98c-1.19-3.4-4-5.95-7.48-6.83l-18.32-4.58v-26l18.32-4.59c3.48-.87 6.3-3.43 7.48-6.83.95-2.73 2-5.4 3.25-7.98a10.7 10.7 0 00-.45-10.17l-9.67-16.12 18.38-18.38 16.14 9.67c3.1 1.86 6.9 2 10.15.46a72.48 72.48 0 018.01-3.27c3.38-1.19 5.93-4 6.8-7.48l4.58-18.31h26.02l4.58 18.31c.87 3.48 3.42 6.3 6.8 7.48 2.73.96 5.41 2 8 3.27a10.71 10.71 0 0010.16-.46l16.14-9.67 18.38 18.38-9.68 16.12a10.7 10.7 0 00-.45 10.17 71.98 71.98 0 013.25 7.98c1.2 3.4 4 5.96 7.48 6.83l18.33 4.59v26z"/>
    <path d="M394.67 341.33c-29.4 0-53.34 23.92-53.34 53.34S365.26 448 394.67 448 448 424.08 448 394.67s-23.93-53.34-53.33-53.34zm0 85.34c-17.65 0-32-14.36-32-32s14.35-32 32-32 32 14.35 32 32-14.36 32-32 32z"/>
  </g>
</svg>
