<svg xmlns="http://www.w3.org/2000/svg" viewBox="0 0 480 480" width="480" height="480">
  <defs>
    <linearGradient id="a" x1="0" y1="0" x2="0" y2="100%" gradientUnits="userSpaceOnUse">
      <stop offset="0" stop-color="#fa0891" />
      <stop offset="1" stop-color="#f26522" />
    </linearGradient>
  </defs>
  <g fill="url(#a)">
    <path d="M456 232V56c0-22.06-17.94-40-40-40H64c-22.06 0-40 17.94-40 40v120c-13.23 0-24 10.77-24 24v240c0 13.23 10.77 24 24 24h176c13.23 0 24-10.77 24-24h67.05c7.54 0 14.5-3.44 19.07-9.43s6.06-13.61 4.08-20.88L298.47 352H344v88c0 13.23 10.77 24 24 24h88c13.23 0 24-10.77 24-24V256c0-13.23-10.77-24-24-24zM208 440c0 4.4-3.6 8-8 8H24c-4.4 0-8-3.6-8-8v-16h192v16zm0-32H16V232h192v176zm0-192H16v-16c0-4.4 3.6-8 8-8h176c4.4 0 8 3.6 8 8v16zm90.77 197.9c.66 2.42.17 4.96-1.36 6.96s-3.84 3.14-6.36 3.14H224v-16h73.16l1.6 5.9zM224 392v-40h57.89l10.91 40H224zm120-56H224v-48h120v48zm0-80v16H224v-72c0-13.23-10.77-24-24-24H40V56c0-13.23 10.77-24 24-24h352c13.23 0 24 10.77 24 24v176h-72c-13.23 0-24 10.77-24 24zm120 184c0 4.4-3.6 8-8 8h-88c-4.4 0-8-3.6-8-8v-16h104v16zm0-32H360V288h104v120zm0-136H360v-16c0-4.4 3.6-8 8-8h88c4.4 0 8 3.6 8 8v16z"/>
    <path d="M42.34 346.33l32-32 11.31 11.31-32 32zM74.34 370.34l96-96 11.31 11.31-96 96zM90.33 298.35l48-48 11.31 11.31-48 48zM378.32 346.35l40-40 11.31 11.32-40 40zM394.32 378.38l40-40 11.3 11.32-39.99 40zM210.33 154.34l48-48 11.31 11.32-48 48zM282.34 138.34l48-48 11.31 11.32-48 48zM234.33 186.36l32-32 11.32 11.3-32 32.01zM274.28 90.45l32.08-32.09 11.32 11.32-32.08 32.08zM56 48h16v16H56zM88 48h16v16H88zM120 48h16v16h-16z"/>
  </g>
</svg>
