<svg xmlns="http://www.w3.org/2000/svg" viewBox="0 0 512 512" width="512" height="512">
  <defs>
    <linearGradient id="a" x1="0" x2="0" y1="0" y2="100%" gradientUnits="userSpaceOnUse">
      <stop offset="0" stop-color="#fa0891"/>
      <stop offset="1" stop-color="#f26522"/>
    </linearGradient>
  </defs>
  <g fill="url(#a)">
    <path d="M458.67 0A53.4 53.4 0 01512 53.33v405.34A53.4 53.4 0 01458.67 512H261.54c-9.37 0-14.89-1.24-14.89-10.17 0-7.76 4.69-11.16 14.6-11.16h197.42a32 32 0 0032-32V53.33a32 32 0 00-32-32H53.33a32 32 0 00-32 32v405.34a32 32 0 0032 32l77.3-.06c10.33.4 12.93 5.15 12.72 11.12-.2 5.57-4.57 10.27-13.52 10.27h-76.5A53.4 53.4 0 010 458.67V53.33A53.4 53.4 0 0153.33 0z"/>
    <path d="M0 85.33h202.67v21.34H0zM448 170.67H64A21.33 21.33 0 0042.67 192v234.67A21.33 21.33 0 0064 448h384a21.33 21.33 0 0021.33-21.33V192A21.33 21.33 0 00448 170.67zm0 256H64V192h384z"/>
    <path d="M263.54 88.46a10.67 10.67 0 00-15.08 0l-85.34 85.33 15.09 15.09 77.79-77.8 77.46 77.46 15.08-15.08zM309.33 85.33H512v21.34H309.33zM192 352v-21.33h-21.33V352A9.76 9.76 0 01160 362.67h-21.33A9.76 9.76 0 01128 352v-85.33A9.76 9.76 0 01138.67 256H160a9.76 9.76 0 0110.67 10.67V288H192v-21.33a31.1 31.1 0 00-32-32h-21.33a31.1 31.1 0 00-32 32V352a31.1 31.1 0 0032 32H160a31.1 31.1 0 0032-32zM266.67 234.67h-22.74a31.3 31.3 0 00-30.6 32V289.4a31.3 31.3 0 0032 30.6H256v-21.33h-10.67A9.9 9.9 0 01234.66 288v-21.33A9.9 9.9 0 01245.34 256h21.34l.6.03a10.97 10.97 0 0110.06 11.8V288h21.34v-20.17-.66a32.25 32.25 0 00-32-32.5z"/>
    <path d="M266.67 298.67H256V320h10.67a9.9 9.9 0 0110.67 10.67V352a9.9 9.9 0 01-10.67 10.67h-21.34l-.6-.03a10.97 10.97 0 01-10.06-11.8v-20.17h-21.34V351.5a32.26 32.26 0 0032 32.5h22.74a31.3 31.3 0 0030.6-32v-21.33-1.4a31.3 31.3 0 00-32-30.6zM373.33 234.67H350.6a31.3 31.3 0 00-30.6 32V288v1.4a31.3 31.3 0 0032 30.6h10.67v-21.33H352A9.9 9.9 0 01341.33 288v-21.33A9.9 9.9 0 01352 256h21.33l.6.03a10.97 10.97 0 0110.07 11.8V288h21.33v-20.17l.01-.66a32.26 32.26 0 00-32-32.5z"/>
    <path d="M373.33 298.67h-10.66V320h10.66A9.9 9.9 0 01384 330.67V352a9.9 9.9 0 01-10.67 10.67H352l-.6-.03a10.97 10.97 0 01-10.07-11.8v-20.17H320v20.17l-.01.66A32.26 32.26 0 00352 384H374.73a31.3 31.3 0 0030.6-32v-21.33-1.4a31.3 31.3 0 00-32-30.6zM111.33 43.33a10.03 10.03 0 00-7.07 17.07c1.86 1.86 4.44 2.93 7.07 2.93s5.21-1.07 7.07-2.93a10.07 10.07 0 002.93-7.07c0-2.63-1.07-5.2-2.93-7.07a10.07 10.07 0 00-7.07-2.93zM63.33 43.33a10.01 10.01 0 000 20c2.63 0 5.21-1.07 7.07-2.93a10.07 10.07 0 002.93-7.07c0-2.63-1.07-5.2-2.93-7.07a10.07 10.07 0 00-7.07-2.93zM159.33 43.33a10.03 10.03 0 00-7.07 17.07c1.86 1.86 4.44 2.93 7.07 2.93s5.21-1.07 7.07-2.93a10.07 10.07 0 002.93-7.07c0-2.63-1.07-5.2-2.93-7.07a10.05 10.05 0 00-7.07-2.93zM192.67 492c-2.63 0-5.21 1.07-7.07 2.93s-2.93 4.44-2.93 7.07 1.07 5.21 2.93 7.07c1.86 1.86 4.44 2.93 7.07 2.93s5.2-1.07 7.07-2.93c1.86-1.86 2.93-4.44 2.93-7.07s-1.07-5.21-2.93-7.07a10.05 10.05 0 00-7.07-2.93z"/>
  </g>
</svg>
